# AST/ASF file generated using VICON BodyLanguage
# -----------------------------------------------
:version 1.10
:name VICON
:units
  mass 1.0
  length 0.45
  angle deg
:documentation
   .ast/.asf automatically generated from VICON data using
   VICON BodyBuilder and BodyLanguage model FoxedUp or BRILLIANT.MOD
:root
   order TX TY TZ RX RY RZ
   axis XYZ
   position 0 0 0  
   orientation 0 0 0 
:bonedata
  begin
     id 1 
     name lhipjoint
     direction 0.606768 -0.715223 0.346827 
     length 2.41543 
     axis 0 0 0  XYZ
  end
  begin
     id 2 
     name lfemur
     direction 0.34202 -0.939693 0  
     length 7.2778  
     axis 0 0 20  XYZ
    dof rx ry rz
    limits (-160.0 20.0)
           (-70.0 70.0)
           (-60.0 70.0)
  end
  begin
     id 3 
     name ltibia
     direction 0.34202 -0.939693 0   
     length 7.61811   
     axis 0 0 20   XYZ
    dof rx
    limits (-10.0 170.0)
  end
  begin
     id 4 
     name lfoot
     direction 0.0823924 -0.226371 0.97055   
     length 2.33618   
     axis -90 7.62852e-016 20   XYZ
    dof rx rz
    limits (-45.0 90.0)
           (-70.0 20.0)
  end
  begin
     id 5 
     name ltoes
     direction 1.53554e-011 -4.21934e-011 1   
     length 1.17015   
     axis -90 7.62852e-016 20   XYZ
    dof rx
    limits (-90.0 20.0)
  end
  begin
     id 6 
     name rhipjoint
     direction -0.6077 -0.714582 0.346516   
     length 2.4176  
     axis 0 0 0  XYZ 
  end
  begin
     id 7 
     name rfemur
     direction -0.34202 -0.939693 0   
     length 7.28127   
     axis 0 0 -20   XYZ
    dof rx ry rz
    limits (-160.0 20.0)
           (-70.0 70.0)
           (-70.0 60.0)
  end
  begin
     id 8 
     name rtibia
     direction -0.34202 -0.939693 0   
     length 7.77648   
     axis 0 0 -20   XYZ
    dof rx
    limits (-10.0 170.0)
 end
 begin
     id 9 
     name rfoot
     direction -0.0809463 -0.222398 0.97159   
     length 2.37533  
     axis -90 -7.62852e-016 -20   XYZ
    dof rx rz
    limits (-45.0 90.0)
           (-20.0 70.0)
  end
  begin
     id 10 
     name rtoes
     direction -1.53568e-011 -4.21714e-011 1   
     length 1.18972   
     axis -90 -7.62852e-016 -20   XYZ
    dof rx
    limits (-90.0 20.0)
  end
  begin
     id 11 
     name lowerback
     direction 0.010968 0.991932 -0.126297   
     length 2.21698   
     axis 0 0 0   XYZ
    dof rx ry rz
    limits (-20.0 45.0)
           (-30.0 30.0)
           (-30.0 30.0)
  end
  begin
     id 12 
     name upperback
     direction 0.0167007 0.997503 -0.0686276   
     length 2.22371   
     axis 0 0 0   XYZ
    dof rx ry rz
    limits (-20.0 45.0)
           (-30.0 30.0)
           (-30.0 30.0)
  end
  begin
     id 13 
     name thorax
     direction 0.0111721 0.999885 -0.0102878   
     length 2.25242   
     axis 0 0 0   XYZ
    dof rx ry rz
    limits (-20.0 45.0)
           (-30.0 30.0)
           (-30.0 30.0)
  end
  begin
     id 14 
     name lowerneck
     direction -0.0120265 0.990428 0.137508   
     length 1.57674   
     axis 0 0 0   XYZ
    dof rx ry rz
    limits (-20.0 45.0)
           (-30.0 30.0)
           (-30.0 30.0)
  end
  begin
     id 15 
     name upperneck
     direction 0.0175669 0.998907 0.0433089   
     length 1.5618   
     axis 0 0 0   XYZ
    dof rx ry rz
    limits (-20.0 45.0)
           (-30.0 30.0)
           (-30.0 30.0)
  end
  begin
     id 16
     name head
     direction 0.00754609 0.99997 0.00185367  
     length 1.60579  
     axis 0 0 0   XYZ
    dof rx ry rz
    limits (-20.0 45.0)
           (-30.0 30.0)
           (-30.0 30.0)
  end
  begin
     id 17 
     name lclavicle
     direction 0.885866 0.429166 -0.176231  
     length 3.44967  
     axis 0 0 0   XYZ
    dof ry rz
    limits (-20.0 10.0)
           (0.0 20.0)
  end
  begin
     id 18 
     name lhumerus
     direction 1 -4.48973e-011 -1.90255e-027   
     length 5.20607   
     axis 180 -30 -90   XYZ
    dof rx ry rz
    limits (-60.0 90.0)
           (-90.0 90.0)
           (-90.0 90.0)
  end
  begin
     id 19
     name lradius
     direction 1 -4.48956e-011 9.87925e-027   
     length 3.39961   
     axis 180 -30 -90   XYZ
    dof rx
    limits (-10.0 170.0)
  end
  begin
     id 20
     name lwrist
     direction 1 -4.48985e-011 1.73247e-026   
     length 1.6998   
     axis -9.60847e-015 90 90   XYZ
    dof ry
    limits (-180.0 0.0)
 end
  begin
     id 21 
     name lhand
     direction 1 -4.48798e-011 3.46119e-026   
     length 0.519693   
     axis -2.21073e-014 90 90   XYZ
    dof rx rz
    limits (-90.0 90.0)
           (-45.0 45.0)
  end
  begin
     id 22 
     name lfingers
     direction 1 -4.48938e-011 6.92797e-026   
     length 0.41899   
     axis -4.42155e-014 90 90   XYZ
    dof rx
    limits (0.0 90.0)
  end
  begin
     id 23
     name lthumb
     direction 0.707107 -6.34952e-011 0.707107   
     length 0.601588   
     axis -90 45 6.0103e-014   XYZ
    dof rx rz
    limits (-45.0 45.0)
           (-45.0 45.0)
  end
  begin
     id 24 
     name rclavicle
     direction -0.866736 0.456792 -0.200276   
     length 3.45032  
     axis 0 0 0   XYZ 
    dof ry rz
    limits (-10.0 20.0)
           (-20.0 0.0)
  end
  begin
     id 25 
     name rhumerus
     direction -1 -4.4897e-011 8.65094e-028  
     length 5.32214   
     axis 180 30 90   XYZ
    dof rx ry rz
    limits (-90.0 60.0)
           (-90.0 90.0)
           (-90.0 90.0)
  end
  begin
     id 26 
     name rradius
     direction -1 -4.48987e-011 1.08427e-026   
     length 3.51208   
     axis 180 30 90   XYZ
    dof rx
    limits (-10.0 170.0)
  end
  begin
     id 27 
     name rwrist
     direction -1 -4.48961e-011 1.73222e-026   
     length 1.75604   
     axis -9.60847e-015 -90 -90   XYZ
    dof ry
    limits (-180.0 0.0)
  end
  begin
     id 28
     name rhand
     direction -1 -4.48895e-011 3.46314e-026   
     length 0.586681   
     axis -2.21073e-014 -90 -90   XYZ
    dof rx rz
    limits (-90.0 90.0)
           (-45.0 45.0)
  end
  begin
     id 29
     name rfingers
     direction -1 -4.48968e-011 6.92916e-026   
     length 0.472997   
     axis -4.42155e-014 -90 -90   XYZ
    dof rx
    limits (0.0 90.0)
  end
  begin
     id 30
     name rthumb
     direction -0.707107 -6.34848e-011 0.707107   
     length 0.679133   
     axis -90 -45 -6.0103e-014   XYZ
    dof rx rz
    limits (-45.0 45.0)
           (-45.0 45.0)
  end
:hierarchy
  begin
    root lhipjoint rhipjoint lowerback
    lhipjoint lfemur
    lfemur ltibia
    ltibia lfoot
    lfoot ltoes
    rhipjoint rfemur
    rfemur rtibia
    rtibia rfoot
    rfoot rtoes
    lowerback upperback
    upperback thorax
    thorax lowerneck lclavicle rclavicle
    lowerneck upperneck
    upperneck head
    lclavicle lhumerus
    lhumerus lradius
    lradius lwrist
    lwrist lhand lthumb
    lhand lfingers
    rclavicle rhumerus
    rhumerus rradius
    rradius rwrist
    rwrist rhand rthumb
    rhand rfingers
  end

#!OML:ASF H:\Dans Jumps\Project 1\Capture day 1\Session 1\subject.ASF
:FULLY-SPECIFIED
:DEGREES
1
root 0.589733 17.4941 -13.613 5.64984 -1.4297 -1.96684
lowerback -3.34211 -0.0260112 0.485494
upperback 1.16495 -0.101183 1.50258
thorax 3.07364 -0.0561717 1.26686
lowerneck -15.2848 -0.051936 -2.07592
upperneck 15.4781 0.219782 1.03316
head 7.26266 0.0781333 0.70095
rclavicle -6.13748e-015 1.70955e-014
rhumerus -25.0782 -16.9638 -79.8175
rradius 23.9157
rwrist 33.5811
rhand -18.4462 -26.0118
rfingers 7.12502
rthumb 7.83968 -55.8464
lclavicle -6.13748e-015 1.70955e-014
lhumerus -22.9678 2.75652 87.0793
lradius 17.2254
lwrist 0.614327
lhand -24.1904 -3.10804
lfingers 7.12502
lthumb 2.29344 26.8594
rfemur -10.8813 -3.45643 20.7084
rtibia 21.2246
rfoot -15.2019 -2.32643
rtoes 9.41389
lfemur -10.3415 6.83635 -17.4099
ltibia 20.2606
lfoot -12.3616 8.10244
ltoes -5.83514
2
root 0.590509 17.4938 -13.6135 5.65384 -1.42802 -1.99679
lowerback -3.35281 -0.0211013 0.533494
upperback 1.16806 -0.0970523 1.50324
thorax 3.08273 -0.0532027 1.24087
lowerneck -15.2941 -0.058536 -2.05792
upperneck 15.4959 0.206949 1.03219
head 7.27031 0.072904 0.696416
rclavicle -3.35449e-015 2.46493e-014
rhumerus -25.0581 -16.9457 -79.8389
rradius 23.9188
rwrist 33.5667
rhand -18.4492 -26.0316
rfingers 7.12502
rthumb 7.83676 -55.8663
lclavicle -3.35449e-015 2.46493e-014
lhumerus -22.9364 2.68518 87.0961
lradius 17.2609
lwrist 0.673646
lhand -24.1354 -2.96643
lfingers 7.12502
lthumb 2.34664 27.0004
rfemur -10.883 -3.45257 20.7387
rtibia 21.2115
rfoot -15.1897 -2.33074
rtoes 9.37526
lfemur -10.3606 6.83995 -17.3808
ltibia 20.2816
lfoot -12.3691 8.10288
ltoes -5.80267
3
root 0.59101 17.494 -13.6138 5.65293 -1.40783 -1.96552
lowerback -3.35033 -0.0189308 0.514242
upperback 1.16383 -0.0928752 1.49339
thorax 3.0769 -0.0513806 1.24178
lowerneck -15.3186 -0.0687399 -2.0692
upperneck 15.5434 0.192864 1.04975
head 7.29031 0.0669623 0.702758
rclavicle -4.39811e-015 1.53064e-014
rhumerus -25.0574 -16.9675 -79.8282
rradius 23.9194
rwrist 33.5577
rhand -18.4525 -26.1115
rfingers 7.12502
rthumb 7.8336 -55.9464
lclavicle -4.39811e-015 1.53064e-014
lhumerus -22.9187 2.61609 87.1191
lradius 17.2489
lwrist 0.687774
lhand -24.1462 -3.18351
lfingers 7.12502
lthumb 2.33618 26.7834
rfemur -10.8884 -3.49139 20.7023
rtibia 21.2284
rfoot -15.2031 -2.31111
rtoes 9.40831
lfemur -10.3609 6.82088 -17.4169
ltibia 20.2804
lfoot -12.3695 8.09595
ltoes -5.83349
4
root 0.591536 17.4929 -13.6139 5.64385 -1.40761 -1.97974
lowerback -3.34742 -0.0179846 0.537196
upperback 1.16621 -0.0927339 1.49596
thorax 3.07767 -0.0508955 1.23154
lowerneck -15.3206 -0.0687312 -2.07637
upperneck 15.5692 0.190873 1.06954
head 7.29906 0.0673229 0.7103
rclavicle -3.47873e-015 9.93923e-015
rhumerus -25.0372 -16.9787 -79.8288
rradius 23.8966
rwrist 33.5888
rhand -18.4784 -26.0385
rfingers 7.12502
rthumb 7.80857 -55.8743
lclavicle -3.47873e-015 9.93923e-015
lhumerus -22.8953 2.61594 87.1159
lradius 17.3235
lwrist 0.582613
lhand -23.9155 -2.56418
lfingers 7.12502
lthumb 2.55895 27.4002
rfemur -10.8868 -3.48467 20.7162
rtibia 21.2423
rfoot -15.2071 -2.32215
rtoes 9.3638
lfemur -10.3525 6.8335 -17.4017
ltibia 20.2827
lfoot -12.3703 8.09238
ltoes -5.86407
5
root 0.592067 17.4922 -13.6142 5.6402 -1.40329 -1.98188
lowerback -3.34689 -0.0158073 0.549789
upperback 1.16763 -0.0903708 1.49432
thorax 3.07878 -0.0494597 1.22294
lowerneck -15.3324 -0.0724247 -2.07952
upperneck 15.5986 0.184433 1.08211
head 7.3108 0.0651229 0.714392
rclavicle 6.03808e-015 2.5842e-015
rhumerus -25.0203 -16.9822 -79.8324
rradius 23.8881
rwrist 33.5955
rhand -18.4922 -26.0406
rfingers 7.12502
rthumb 7.79529 -55.8769
lclavicle 6.03808e-015 2.5842e-015
lhumerus -22.8787 2.54752 87.1394
lradius 17.3746
lwrist 0.652803
lhand -23.859 -2.32121
lfingers 7.12502
lthumb 2.61354 27.6425
rfemur -10.8958 -3.48565 20.7166
rtibia 21.2665
rfoot -15.2177 -2.32533
rtoes 9.34732
lfemur -10.3453 6.83648 -17.4008
ltibia 20.2751
lfoot -12.3666 8.08955
ltoes -5.89831
6
root 0.592611 17.4915 -13.6146 5.63634 -1.40014 -1.9829
lowerback -3.34465 -0.0134978 0.561291
upperback 1.16934 -0.0877503 1.49236
thorax 3.07921 -0.0479132 1.21462
lowerneck -15.3451 -0.0757379 -2.08376
upperneck 15.6268 0.178751 1.09486
head 7.3223 0.0632469 0.718797
rclavicle 2.11209e-015 -1.13307e-014
rhumerus -25.0032 -16.9835 -79.8366
rradius 23.8821
rwrist 33.6042
rhand -18.5024 -26.0431
rfingers 7.12502
rthumb 7.78543 -55.8797
lclavicle 2.11209e-015 -1.13307e-014
lhumerus -22.8659 2.46818 87.1687
lradius 17.4274
lwrist 0.774791
lhand -23.8433 -2.1129
lfingers 7.12502
lthumb 2.62865 27.8506
rfemur -10.9044 -3.48305 20.7157
rtibia 21.2904
rfoot -15.2277 -2.33023
rtoes 9.33192
lfemur -10.3398 6.84077 -17.4011
ltibia 20.2722
lfoot -12.3652 8.08779
ltoes -5.93479
7
root 0.593158 17.4909 -13.6151 5.63298 -1.39905 -1.9846
lowerback -3.34185 -0.0108191 0.572959
upperback 1.17108 -0.08464 1.4905
thorax 3.07935 -0.0461202 1.20635
lowerneck -15.3557 -0.0790289 -2.08534
upperneck 15.65 0.173088 1.10411
head 7.3318 0.0612303 0.721596
rclavicle 8.19987e-015 -5.1684e-015
rhumerus -24.9863 -16.9819 -79.8419
rradius 23.8786
rwrist 33.6167
rhand -18.5131 -26.0352
rfingers 7.12502
rthumb 7.77512 -55.8723
lclavicle 8.19987e-015 -5.1684e-015
lhumerus -22.8558 2.38629 87.1996
lradius 17.4764
lwrist 0.922904
lhand -23.8658 -1.97015
lfingers 7.12502
lthumb 2.60699 27.9937
rfemur -10.9127 -3.47628 20.7154
rtibia 21.3124
rfoot -15.2361 -2.33607
rtoes 9.32596
lfemur -10.3338 6.8469 -17.4008
ltibia 20.267
lfoot -12.3626 8.08516
ltoes -5.96701
8
root 0.593726 17.4904 -13.6156 5.62988 -1.39861 -1.9833
lowerback -3.33902 -0.00793793 0.581481
upperback 1.17176 -0.0810813 1.48811
thorax 3.07838 -0.0441569 1.19931
lowerneck -15.3598 -0.0826628 -2.08705
upperneck 15.6679 0.167279 1.11107
head 7.33846 0.0589343 0.723621
rclavicle -2.06239e-015 7.95139e-015
rhumerus -24.9721 -16.9762 -79.8468
rradius 23.877
rwrist 33.6297
rhand -18.5257 -26.024
rfingers 7.12502
rthumb 7.76296 -55.8615
lclavicle -2.06239e-015 7.95139e-015
lhumerus -22.849 2.31778 87.2262
lradius 17.5129
lwrist 1.05567
lhand -23.9085 -1.91686
lfingers 7.12502
lthumb 2.56572 28.0475
rfemur -10.92 -3.46984 20.7115
rtibia 21.3319
rfoot -15.2436 -2.34041
rtoes 9.33024
lfemur -10.3283 6.85448 -17.4039
ltibia 20.2616
lfoot -12.361 8.0801
ltoes -5.99131
9
root 0.594357 17.4901 -13.616 5.62578 -1.39903 -1.97889
lowerback -3.33545 -0.00482335 0.587359
upperback 1.17143 -0.0770452 1.48514
thorax 3.07595 -0.0419989 1.19319
lowerneck -15.3581 -0.0864742 -2.08764
upperneck 15.6821 0.16153 1.11435
head 7.34291 0.0563923 0.724234
rclavicle 7.60351e-015 5.1684e-015
rhumerus -24.9605 -16.9682 -79.8499
rradius 23.8755
rwrist 33.6452
rhand -18.538 -26.0063
rfingers 7.12502
rthumb 7.75109 -55.8442
lclavicle 7.60351e-015 5.1684e-015
lhumerus -22.8461 2.25551 87.2512
lradius 17.5389
lwrist 1.18193
lhand -23.9708 -1.92601
lfingers 7.12502
lthumb 2.50556 28.039
rfemur -10.9244 -3.46737 20.7037
rtibia 21.3483
rfoot -15.251 -2.34067
rtoes 9.34178
lfemur -10.3214 6.8628 -17.4107
ltibia 20.2565
lfoot -12.3605 8.07306
ltoes -6.00278
10
root 0.594982 17.4899 -13.6163 5.6207 -1.39817 -1.97177
lowerback -3.32954 -0.00259928 0.589087
upperback 1.16915 -0.0739531 1.48263
thorax 3.07021 -0.0403916 1.1898
lowerneck -15.3504 -0.089959 -2.08909
upperneck 15.6942 0.156622 1.11589
head 7.34559 0.0540342 0.724483
rclavicle 4.82053e-015 -1.09332e-014
rhumerus -24.9525 -16.9552 -79.8518
rradius 23.8748
rwrist 33.6594
rhand -18.553 -25.9801
rfingers 7.12502
rthumb 7.73659 -55.8186
lclavicle 4.82053e-015 -1.09332e-014
lhumerus -22.8434 2.23788 87.2594
lradius 17.5499
lwrist 1.20321
lhand -23.9828 -1.96158
lfingers 7.12502
lthumb 2.49396 28.0036
rfemur -10.9262 -3.46826 20.693
rtibia 21.3616
rfoot -15.2588 -2.3396
rtoes 9.35831
lfemur -10.3144 6.87011 -17.4203
ltibia 20.2517
lfoot -12.3612 8.06313
ltoes -5.99729
11
root 0.595665 17.4898 -13.6165 5.61409 -1.39752 -1.96373
lowerback -3.32251 -0.000970988 0.590618
upperback 1.16688 -0.071629 1.48008
thorax 3.06385 -0.0391704 1.18644
lowerneck -15.3435 -0.0923269 -2.08798
upperneck 15.7083 0.153583 1.11246
head 7.34908 0.0522459 0.7229
rclavicle -2.11209e-015 4.37326e-015
rhumerus -24.9441 -16.9356 -79.8545
rradius 23.8734
rwrist 33.669
rhand -18.5675 -25.9511
rfingers 7.12502
rthumb 7.72266 -55.7901
lclavicle -2.11209e-015 4.37326e-015
lhumerus -22.8423 2.22219 87.267
lradius 17.5563
lwrist 1.22315
lhand -23.9836 -1.96916
lfingers 7.12502
lthumb 2.49317 27.996
rfemur -10.925 -3.47126 20.681
rtibia 21.3724
rfoot -15.2662 -2.33731
rtoes 9.37279
lfemur -10.3056 6.87614 -17.4308
ltibia 20.2481
lfoot -12.3633 8.05477
ltoes -5.98928
12
root 0.596353 17.4896 -13.6167 5.60735 -1.39453 -1.95676
lowerback -3.31477 -0.000147008 0.593353
upperback 1.16417 -0.070423 1.47782
thorax 3.05668 -0.0384849 1.18262
lowerneck -15.3389 -0.0949017 -2.08828
upperneck 15.7262 0.150452 1.10997
head 7.3542 0.0504053 0.721863
rclavicle 4.57205e-015 -3.37934e-015
rhumerus -24.9369 -16.9104 -79.859
rradius 23.8759
rwrist 33.6723
rhand -18.5767 -25.9271
rfingers 7.12502
rthumb 7.71371 -55.7664
lclavicle 4.57205e-015 -3.37934e-015
lhumerus -22.8433 2.20958 87.2733
lradius 17.5617
lwrist 1.23699
lhand -23.969 -1.94353
lfingers 7.12502
lthumb 2.50734 28.0215
rfemur -10.9221 -3.47538 20.6705
rtibia 21.3808
rfoot -15.2731 -2.33706
rtoes 9.3786
lfemur -10.2978 6.87882 -17.4399
ltibia 20.2467
lfoot -12.3663 8.04763
ltoes -5.97832
13
root 0.59703 17.4894 -13.617 5.60111 -1.39146 -1.95234
lowerback -3.30711 0.00013709 0.598514
upperback 1.16233 -0.0700724 1.4759
thorax 3.05045 -0.0381847 1.17775
lowerneck -15.3406 -0.0967946 -2.08606
upperneck 15.7487 0.14826 1.10499
head 7.36192 0.0489207 0.71973
rclavicle -1.3418e-015 1.21259e-014
rhumerus -24.9267 -16.8809 -79.8668
rradius 23.8794
rwrist 33.67
rhand -18.5839 -25.9078
rfingers 7.12502
rthumb 7.70682 -55.7473
lclavicle -1.3418e-015 1.21259e-014
lhumerus -22.8437 2.1936 87.2783
lradius 17.5645
lwrist 1.25134
lhand -23.9545 -1.91831
lfingers 7.12502
lthumb 2.52133 28.0465
rfemur -10.919 -3.47582 20.6631
rtibia 21.388
rfoot -15.2788 -2.34076
rtoes 9.38169
lfemur -10.2926 6.88099 -17.4463
ltibia 20.2477
lfoot -12.3686 8.04188
ltoes -5.97143
14
root 0.597762 17.4893 -13.6172 5.5955 -1.3872 -1.95026
lowerback -3.30193 7.34174e-005 0.607842
upperback 1.16295 -0.0704393 1.47354
thorax 3.04816 -0.0381634 1.17006
lowerneck -15.3507 -0.0988808 -2.08606
upperneck 15.776 0.145813 1.10366
head 7.37268 0.04752 0.719168
rclavicle -2.55935e-015 6.16232e-015
rhumerus -24.9112 -16.8525 -79.8776
rradius 23.8827
rwrist 33.6677
rhand -18.5866 -25.8933
rfingers 7.12502
rthumb 7.7042 -55.7329
lclavicle -2.55935e-015 6.16232e-015
lhumerus -22.8401 2.17727 87.2812
lradius 17.5639
lwrist 1.2619
lhand -23.9394 -1.88954
lfingers 7.12502
lthumb 2.53586 28.0751
rfemur -10.9161 -3.47518 20.6583
rtibia 21.3943
rfoot -15.2831 -2.34732
rtoes 9.37464
lfemur -10.2901 6.88041 -17.4504
ltibia 20.251
lfoot -12.3697 8.03914
ltoes -5.97176
